<?xml version="1.0"?>
<svg xmlns="http://www.w3.org/2000/svg" id="Layer_1" data-name="Layer 1" viewBox="0 0 128 128" width="512" height="512"><title>PROFILE</title><path d="M102.775,93.434H25.224a4.46,4.46,0,0,1-4.46-4.46V39.026a4.46,4.46,0,0,1,4.46-4.46H91.5L107.235,50.3V88.975A4.46,4.46,0,0,1,102.775,93.434Z" style="fill:#fff"/><polygon points="107.235 50.301 91.5 50.301 91.5 34.566 107.235 50.301" style="fill:#6fb7e7"/><path d="M48.375,61.982a9.771,9.771,0,0,0-19.542,0Z" style="fill:#71c594"/><circle cx="38.604" cy="47.322" r="4.889" style="fill:#71c594"/><path d="M108.119,49.417,92.384,33.683a1.259,1.259,0,0,0-.884-.367H25.225a5.716,5.716,0,0,0-5.71,5.709V88.975a5.716,5.716,0,0,0,5.71,5.71H30a1.25,1.25,0,0,0,0-2.5H25.225a3.214,3.214,0,0,1-3.21-3.21V39.025a3.214,3.214,0,0,1,3.21-3.209H90.25V50.3a1.25,1.25,0,0,0,1.25,1.25h7.167a1.25,1.25,0,0,0,0-2.5H92.75V37.583l13.235,13.235V88.975a3.214,3.214,0,0,1-3.21,3.21H36.667a1.25,1.25,0,0,0,0,2.5h66.108a5.716,5.716,0,0,0,5.71-5.71V50.3A1.25,1.25,0,0,0,108.119,49.417Z" style="fill:#444f55"/><path d="M27.583,61.982a1.25,1.25,0,0,0,2.5,0,8.521,8.521,0,0,1,17.042,0,1.25,1.25,0,0,0,2.5,0A11.034,11.034,0,0,0,42.8,51.795a6.139,6.139,0,1,0-8.385,0A11.034,11.034,0,0,0,27.583,61.982Zm7.382-14.66a3.639,3.639,0,1,1,3.64,3.639A3.644,3.644,0,0,1,34.965,47.322Z" style="fill:#444f55"/><path d="M56.75,49.544H80.5a1.25,1.25,0,0,0,0-2.5H56.75a1.25,1.25,0,0,0,0,2.5Z" style="fill:#444f55"/><path d="M56.75,60.015H80.5a1.25,1.25,0,0,0,0-2.5H56.75a1.25,1.25,0,0,0,0,2.5Z" style="fill:#444f55"/><path d="M75.917,69.235a1.25,1.25,0,0,0,1.25,1.25h21.5a1.25,1.25,0,0,0,0-2.5h-21.5A1.25,1.25,0,0,0,75.917,69.235Z" style="fill:#444f55"/><path d="M28.833,70.485h41.5a1.25,1.25,0,0,0,0-2.5h-41.5a1.25,1.25,0,0,0,0,2.5Z" style="fill:#444f55"/><path d="M28.833,80.956H98.667a1.25,1.25,0,0,0,0-2.5H28.833a1.25,1.25,0,0,0,0,2.5Z" style="fill:#444f55"/></svg>
